<svg id="Capa_1" xmlns="http://www.w3.org/2000/svg" xmlns:xlink="http://www.w3.org/1999/xlink" x="0px" y="0px" height="40px" viewBox="0 0 410 100" xml:space="preserve"><g><g><path d="M127.9,33.9l10.1,24.3l10.1-24.3h7.5l-15.4,35l-4.4,0.8l-15.7-35.8H127.9z"></path><path d="M187.1,33.9l-1.7,5.9h-16.1v8.4h13.9l-1.7,5.7h-12.1V63h17.8l-1.7,5.9h-22.8v-35H187.1z"></path><path d="M221.4,44.4c0,5-3.4,8.7-7.9,10.1l10.9,13.9l-7.1,1.2l-10.9-14.4h-4.4v13.6h-6.7v-35h12.8 C216.8,33.9,221.4,38.4,221.4,44.4z M208.1,49.9c3.6,0,6.1-2,6.1-5.2c0-3-2.4-5-6.4-5h-5.8v10.2H208.1z"></path><path d="M232.6,34.7l6.7-1.4v35.6h-6.7V34.7z"></path><path d="M260.4,63.9c3.7,0,6-1.9,6-4.3c0-2.2-1.6-3.6-7.5-5.8c-5.9-2.2-9.7-4.7-9.7-10.2c0-5.3,4.4-10.4,12.4-10.4 c3.9,0,8,1.2,11.3,3l-1.8,5.9c-3.1-1.6-6.7-2.9-9.6-2.9c-3.6,0-5.3,1.9-5.3,3.9c0,2,1.6,3.3,6.7,5.2c7.2,2.7,10.6,5.8,10.6,10.8 c0,6.1-5.1,10.8-13.1,10.8c-4.2,0-8.7-1.4-12.1-3.3l1.9-5.9C253.3,62.5,257.4,63.9,260.4,63.9z"></path><path d="M294.6,34.1l4.4-0.8l15.9,35.6h-7.5l-2.9-7h-15.5l-3,7h-7.2L294.6,34.1z M302.2,56.4l-5.4-12.9l-5.5,12.9H302.2z"></path><path d="M347.8,44.4c0,5-3.4,8.7-7.9,10.1l10.9,13.9l-7.1,1.2l-10.9-14.4h-4.4v13.6h-6.7v-35h12.8 C343.2,33.9,347.8,38.4,347.8,44.4z M334.6,49.9c3.6,0,6.1-2,6.1-5.2c0-3-2.4-5-6.4-5h-5.8v10.2H334.6z"></path><path d="M354.4,33.9h33.1l-1.8,6h-12.2v29h-6.7v-29h-14.1L354.4,33.9z"></path></g><path fill="black" d="M50,0C22.4,0,0,22.4,0,50s22.4,50,50,50c27.6,0,50-22.4,50-50S77.6,0,50,0z M89.4,33.9c0.4,0.9,0.7,1.8,1,2.8 l-7,2.3c-0.3-0.8-0.5-1.5-0.8-2.3L89.4,33.9z M80.2,20c0.7,0.7,1.4,1.4,2,2.2L76.6,27c-0.5-0.6-1.1-1.2-1.7-1.8L80.2,20z  M66.4,10.7c0.9,0.4,1.8,0.8,2.7,1.2l-3.3,6.6c-0.7-0.4-1.5-0.7-2.2-1L66.4,10.7z M50.2,7.4c0.5,0,1,0,1.5,0c0.5,0,1,0,1.5,0.1 l-0.5,7.4c-0.4,0-0.8-0.1-1.2-0.1c-0.4,0-0.8,0-1.2,0L50.2,7.4z M36.6,9.6l2.3,7c-0.8,0.3-1.5,0.5-2.3,0.8l-2.8-6.8 C34.8,10.2,35.7,9.9,36.6,9.6z M7.4,48.4c0-0.5,0-1,0.1-1.5l7.4,0.5c0,0.4-0.1,0.8-0.1,1.2c0,0.4,0,0.8,0,1.2l-7.4,0 C7.4,49.4,7.4,48.9,7.4,48.4z M10.6,66.2c-0.4-0.9-0.7-1.8-1-2.8l7-2.3c0.3,0.8,0.5,1.5,0.8,2.3L10.6,66.2z M10.7,33.6 c0.4-0.9,0.8-1.8,1.2-2.7l6.6,3.3c-0.4,0.7-0.7,1.5-1,2.2L10.7,33.6z M19.8,80c-0.7-0.7-1.4-1.4-2-2.2l5.6-4.8 c0.5,0.6,1.1,1.2,1.7,1.8L19.8,80z M25.2,25.1L20,19.8c0.7-0.7,1.4-1.4,2.2-2l4.8,5.6C26.4,23.9,25.8,24.5,25.2,25.1z M33.5,89.3 c-0.9-0.4-1.8-0.8-2.7-1.2l3.3-6.6c0.7,0.4,1.5,0.7,2.2,1L33.5,89.3z M30,32.3h6l6.5,13.3l-5.6,1L30,32.3z M49.8,92.6 c-0.5,0-1,0-1.5,0c-0.5,0-1,0-1.5-0.1l0.5-7.4c0.4,0,0.8,0.1,1.2,0.1c0.4,0,0.8,0,1.2,0L49.8,92.6z M63.4,90.5l-2.3-7 c0.8-0.3,1.5-0.5,2.3-0.8l2.8,6.8C65.2,89.8,64.3,90.1,63.4,90.5z M52.1,70.7l-3.3,0.6l-9.3-19.1l5.5-1l5.5,11.4l13.7-30.2H70 L52.1,70.7z M77.8,82.2L73,76.7c0.6-0.5,1.2-1.1,1.8-1.7l5.2,5.2C79.3,80.9,78.6,81.6,77.8,82.2z M88,69.2l-6.6-3.3 c0.4-0.7,0.7-1.5,1-2.2l6.8,2.9C88.9,67.4,88.5,68.3,88,69.2z M92.4,53.1l-7.4-0.5c0-0.4,0.1-0.8,0.1-1.2c0-0.4,0-0.8,0-1.2l7.4,0 c0,0.5,0,1,0,1.5C92.5,52.2,92.5,52.7,92.4,53.1z"></path></g></svg>